<?xml version="1.0" standalone="no"?>
<!DOCTYPE svg PUBLIC "-//W3C//DTD SVG 20010904//EN"
 "http://www.w3.org/TR/2001/REC-SVG-20010904/DTD/svg10.dtd">
<svg version="1.0" xmlns="http://www.w3.org/2000/svg"
 width="2000.000000pt" height="500.000000pt" viewBox="0 0 2000.000000 500.000000"
 preserveAspectRatio="xMidYMid meet">

<g transform="translate(0.000000,500.000000) scale(0.100000,-0.100000)"
fill="#000000" stroke="none">
<path d="M9080 2964 c-107 -29 -165 -99 -165 -201 0 -104 44 -143 221 -199 85
-26 118 -41 134 -61 25 -32 25 -44 0 -76 -40 -50 -171 -42 -278 18 -25 14 -46
25 -48 25 -5 0 -54 -98 -54 -108 0 -16 133 -70 200 -82 109 -20 223 2 279 53
52 48 76 147 50 214 -25 66 -67 91 -254 150 -99 31 -124 55 -111 107 16 63
130 72 238 18 l57 -28 25 47 c15 26 26 51 26 56 0 15 -109 62 -170 73 -67 13
-83 12 -150 -6z"/>
<path d="M6292 2961 c1 -5 64 -160 138 -345 l135 -336 59 2 58 3 57 137 c31
76 58 138 61 138 3 0 30 -62 61 -138 l57 -137 58 0 58 0 133 325 c73 179 135
333 139 343 5 16 -1 18 -68 15 l-73 -3 -95 -262 c-52 -144 -98 -259 -101 -255
-11 12 -79 192 -79 207 0 8 25 81 55 161 30 81 55 149 55 151 0 2 -28 3 -62 1
l-61 -3 -28 -80 c-53 -158 -46 -155 -88 -30 l-38 110 -61 3 c-34 2 -62 1 -62
-1 0 -2 25 -70 55 -152 30 -81 55 -153 55 -159 0 -10 -21 -68 -72 -196 -8 -22
-22 8 -107 240 l-97 265 -73 3 c-43 2 -72 -1 -69 -7z"/>
<path d="M7630 2625 l0 -345 240 0 240 0 0 60 0 60 -175 0 -175 0 0 90 0 90
145 0 145 0 0 55 0 55 -145 0 -145 0 0 80 0 80 170 0 170 0 0 60 0 60 -235 0
-235 0 0 -345z"/>
<path d="M9770 2625 l0 -345 240 0 240 0 0 60 0 60 -170 0 -170 0 0 90 0 90
145 0 145 0 0 55 0 55 -145 0 -145 0 0 80 0 80 168 2 167 3 3 58 3 57 -241 0
-240 0 0 -345z"/>
<path d="M10600 2625 l0 -345 240 0 240 0 0 60 0 60 -170 0 -170 0 0 90 0 90
145 0 145 0 0 55 0 55 -145 0 -145 0 0 80 0 80 168 2 167 3 3 58 3 57 -241 0
-240 0 0 -345z"/>
<path d="M11842 2961 c1 -5 64 -160 138 -345 l135 -336 59 2 58 3 57 137 c31
76 58 138 61 138 3 0 30 -62 61 -138 l57 -137 58 0 58 0 133 325 c73 179 135
333 139 343 5 16 -1 18 -68 15 l-73 -3 -95 -262 c-52 -144 -98 -259 -101 -255
-11 12 -79 192 -79 207 0 8 25 81 55 161 30 81 55 149 55 151 0 2 -28 3 -62 1
l-61 -3 -28 -80 c-53 -158 -46 -155 -88 -30 l-38 110 -61 3 c-34 2 -62 1 -62
-1 0 -2 25 -70 55 -152 30 -81 55 -153 55 -159 0 -10 -21 -68 -72 -196 -8 -22
-22 8 -107 240 l-97 265 -73 3 c-43 2 -72 -1 -69 -7z"/>
<path d="M13180 2625 l0 -345 240 0 240 0 0 60 0 60 -175 0 -176 0 3 88 3 87
148 3 148 3 -3 52 -3 52 -147 3 -148 3 0 79 0 80 170 0 170 0 0 60 0 60 -235
0 -235 0 0 -345z"/>
<path d="M11412 2084 c-117 -19 -284 -73 -367 -119 -123 -69 -205 -166 -205
-241 1 -76 84 -157 285 -276 66 -39 140 -85 163 -101 l44 -29 -44 -25 c-67
-38 -98 -72 -98 -108 0 -58 57 -83 146 -65 29 6 65 21 79 32 23 18 26 27 22
59 -3 21 -15 51 -26 68 -12 16 -18 31 -14 34 5 2 36 10 71 17 34 7 62 17 62
21 0 12 -13 11 -94 -6 l-69 -15 -51 33 c-28 19 -107 67 -175 108 -131 78 -222
152 -248 202 -78 152 207 348 578 397 150 20 260 -18 283 -98 9 -33 -9 -96
-39 -136 -15 -19 -15 -19 -29 -1 -8 11 -20 16 -29 12 -31 -12 -40 -85 -41
-342 -1 -225 1 -250 16 -253 10 -2 19 6 23 20 15 48 48 118 56 118 4 0 11 -17
15 -37 9 -50 22 -65 48 -57 25 7 66 43 66 57 0 6 -10 1 -23 -11 -37 -35 -57
-29 -57 17 0 69 -53 80 -91 18 l-19 -32 0 30 c0 17 9 82 19 145 11 63 23 149
27 190 6 66 11 79 41 113 41 46 53 75 53 129 0 33 -7 47 -38 78 -61 62 -178
80 -340 54z m258 -446 c-7 -71 -15 -128 -17 -128 -7 0 8 283 16 295 12 20 13
-43 1 -167z m-290 -380 c29 -48 26 -84 -7 -101 -91 -46 -178 -13 -143 53 12
23 96 80 117 80 7 0 22 -15 33 -32z"/>
<path d="M9837 1896 c-113 -42 -209 -155 -284 -336 -89 -215 -80 -441 20 -512
27 -19 45 -23 112 -23 68 0 89 4 139 29 83 40 162 124 215 224 23 46 41 86 38
89 -3 2 -24 -28 -48 -69 -111 -190 -311 -305 -420 -241 -152 90 -74 527 131
734 75 76 147 112 176 88 25 -21 13 -109 -32 -216 -20 -51 -35 -96 -31 -99 17
-17 52 41 86 145 24 74 28 163 8 180 -23 19 -70 22 -110 7z"/>
<path d="M9489 1853 c-83 -131 -210 -434 -275 -653 -15 -52 -30 -99 -34 -103
-8 -9 -7 -16 -60 335 -55 363 -60 389 -77 395 -7 3 -16 4 -18 1 -2 -2 4 -56
15 -118 10 -63 35 -225 56 -360 45 -302 53 -335 77 -335 16 0 33 41 97 235 78
238 155 424 229 559 23 41 41 78 41 82 0 22 -23 5 -51 -38z"/>
<path d="M10629 1853 c-83 -131 -210 -434 -275 -653 -15 -52 -30 -99 -34 -103
-8 -9 -7 -16 -60 335 -55 363 -60 389 -77 395 -7 3 -16 4 -18 1 -2 -2 4 -56
15 -118 10 -63 35 -225 56 -360 45 -302 53 -335 77 -335 16 0 33 41 97 235 78
238 155 424 229 559 23 41 41 78 41 82 0 22 -23 5 -51 -38z"/>
<path d="M13625 1800 c-76 -134 -144 -295 -220 -525 -35 -104 -66 -183 -69
-175 -2 8 -25 155 -51 325 -56 373 -62 405 -81 405 -8 0 -14 -6 -14 -12 0 -14
93 -624 111 -724 12 -70 31 -96 53 -73 8 8 30 70 51 139 69 235 176 500 261
652 49 87 50 88 30 88 -8 0 -40 -45 -71 -100z"/>
<path d="M4343 1823 c-16 -24 -18 -59 -21 -300 -3 -237 -1 -273 12 -273 9 0
23 23 36 57 27 71 40 89 51 71 5 -7 9 -22 9 -34 0 -11 6 -29 14 -39 12 -17 17
-17 45 -5 17 7 36 21 42 32 10 19 10 19 -15 3 -36 -24 -56 -13 -56 28 0 65
-50 71 -91 12 l-21 -30 6 45 c3 25 15 106 26 180 22 150 25 232 10 261 -14 26
-26 24 -47 -8z m33 -125 c-11 -172 -24 -217 -19 -63 4 135 9 175 20 175 3 0 3
-51 -1 -112z"/>
<path d="M12373 1823 c-16 -24 -18 -59 -21 -300 -4 -247 -2 -273 12 -273 9 0
19 8 23 18 16 49 53 122 61 122 5 0 12 -19 15 -41 6 -46 22 -62 52 -53 25 8
55 34 55 47 0 6 -8 3 -18 -6 -37 -34 -62 -16 -62 43 0 17 -7 30 -16 34 -20 8
-59 -16 -74 -45 -21 -39 -21 -12 0 117 28 169 37 328 20 349 -18 21 -27 19
-47 -12z m35 -143 c-4 -58 -10 -112 -12 -120 -7 -27 -6 156 1 205 11 86 20 23
11 -85z"/>
<path d="M13989 1794 c-53 -33 -74 -80 -77 -173 -4 -82 6 -131 42 -211 5 -12
-2 -15 -30 -16 -48 -1 -76 -33 -72 -83 4 -53 40 -63 107 -28 l50 27 37 -25
c50 -34 77 -32 119 10 48 49 44 66 -5 21 -22 -20 -46 -36 -54 -36 -16 0 -66
38 -66 51 0 5 16 31 35 58 61 85 79 136 79 231 0 63 -4 95 -18 123 -30 61 -94
83 -147 51z m105 -37 c18 -25 21 -43 21 -130 0 -91 -3 -108 -27 -157 -16 -30
-37 -66 -48 -80 -20 -24 -21 -25 -35 -6 -30 39 -58 132 -63 208 -6 95 0 118
40 163 39 45 80 45 112 2z m-134 -403 c21 -21 22 -27 10 -35 -38 -25 -71 -39
-80 -34 -25 15 4 95 34 95 7 0 23 -11 36 -26z"/>
<path d="M14999 1787 c-54 -36 -74 -87 -73 -187 0 -62 6 -100 22 -140 27 -67
27 -69 2 -63 -43 11 -99 -54 -84 -99 3 -11 16 -24 29 -30 20 -9 34 -6 80 16
l55 28 31 -26 c17 -14 42 -26 56 -26 27 0 93 58 93 81 0 7 -7 3 -16 -9 -20
-29 -70 -55 -94 -47 -10 3 -25 16 -34 29 -14 23 -14 26 16 63 101 125 120 338
36 408 -37 31 -75 32 -119 2z m100 -16 c46 -46 52 -176 12 -280 -20 -53 -65
-121 -80 -121 -22 0 -81 184 -81 250 0 121 89 211 149 151z m-128 -409 c28
-23 21 -45 -22 -67 -29 -15 -33 -15 -47 -1 -14 14 -14 19 1 51 19 39 34 43 68
17z"/>
<path d="M5196 1781 c-31 -35 -48 -154 -44 -316 3 -116 8 -157 20 -181 30 -55
84 -49 121 14 26 44 15 52 -12 9 -39 -64 -78 -55 -88 19 -3 28 5 66 27 134 42
122 54 288 25 320 -22 25 -28 25 -49 1z m44 -81 c0 -75 -23 -204 -45 -255 -11
-24 -14 -26 -14 -9 -2 46 21 288 29 310 17 45 30 25 30 -46z"/>
<path d="M8635 1786 c-113 -49 -198 -494 -116 -606 26 -36 62 -33 72 5 8 27 6
45 -8 100 -4 16 -3 18 8 8 24 -24 73 -15 104 17 16 16 26 32 23 35 -2 3 -15
-6 -28 -20 -35 -38 -76 -28 -120 27 l-21 28 45 72 c91 148 144 290 119 324
-14 19 -47 24 -78 10z m50 -62 c-1 -56 -32 -131 -103 -244 -42 -67 -47 -72
-50 -48 -8 71 70 304 112 334 31 22 41 12 41 -42z m-136 -435 c6 -27 11 -64
10 -82 l-1 -32 -13 30 c-18 41 -31 150 -17 141 6 -3 15 -29 21 -57z"/>
<path d="M7240 1455 c0 -8 4 -15 9 -15 5 0 11 7 15 15 3 9 0 15 -9 15 -8 0
-15 -7 -15 -15z"/>
<path d="M11950 1455 c0 -8 4 -15 9 -15 5 0 11 7 15 15 3 9 0 15 -9 15 -8 0
-15 -7 -15 -15z"/>
<path d="M13670 1454 c0 -8 5 -12 10 -9 6 3 10 10 10 16 0 5 -4 9 -10 9 -5 0
-10 -7 -10 -16z"/>
<path d="M5742 1402 c-14 -14 -22 -16 -36 -8 -14 9 -22 6 -41 -16 -18 -21 -25
-24 -29 -13 -3 8 -10 15 -16 15 -14 0 -9 -102 5 -107 6 -2 22 18 35 44 24 48
24 48 28 18 6 -51 19 -50 46 4 15 28 31 51 36 51 5 0 10 -26 12 -57 3 -54 5
-58 28 -61 18 -2 35 7 60 34 23 24 28 33 14 26 -11 -6 -26 -18 -34 -26 -27
-33 -41 -19 -39 37 1 30 -1 59 -5 65 -11 18 -44 14 -64 -6z"/>
<path d="M12773 1407 c-5 -6 -15 -31 -22 -54 -20 -72 -51 -66 -51 10 0 26 -4
37 -12 35 -17 -6 -22 -72 -8 -98 12 -22 49 -27 69 -7 10 10 14 9 22 -5 15 -27
52 -22 84 12 16 16 26 32 23 35 -2 3 -15 -6 -28 -20 -38 -41 -50 -33 -50 34 0
60 -10 81 -27 58z"/>
<path d="M3813 1403 c-18 -7 -16 -43 4 -65 15 -17 15 -19 0 -36 -23 -25 -21
-41 6 -51 31 -12 57 4 57 36 0 17 10 36 28 50 l27 23 -38 -17 c-36 -16 -38
-16 -52 3 -19 25 -19 44 1 44 8 0 12 5 9 10 -7 11 -22 12 -42 3z m37 -128 c0
-8 -4 -15 -10 -15 -5 0 -10 7 -10 15 0 8 5 15 10 15 6 0 10 -7 10 -15z"/>
<path d="M6106 1402 c-3 -5 -18 -7 -34 -4 -40 5 -78 -21 -92 -64 -10 -30 -9
-38 6 -55 24 -26 50 -24 80 8 23 25 27 26 35 10 16 -28 73 -22 98 9 30 38 26
52 -4 20 -39 -42 -59 -31 -63 32 -3 48 -13 65 -26 44z m-16 -34 c0 -18 -50
-78 -66 -78 -25 0 -10 62 20 82 17 12 46 9 46 -4z"/>
<path d="M6726 1400 c-57 -7 -96 -44 -96 -90 0 -55 64 -64 97 -13 16 25 17 25
25 4 11 -30 67 -29 95 2 34 38 38 54 6 24 -45 -42 -68 -33 -68 25 0 25 -2 48
-5 50 -3 2 -27 1 -54 -2z m14 -31 c0 -25 -43 -80 -59 -77 -20 5 -17 45 6 70
18 20 53 24 53 7z"/>
<path d="M6980 1392 c-14 -11 -19 -23 -15 -35 10 -25 38 -22 30 3 -7 22 14 36
40 26 20 -7 8 -31 -42 -87 l-35 -39 30 0 c34 0 49 -14 34 -33 -33 -42 -13
-107 33 -107 35 0 48 31 35 80 -6 21 -15 42 -21 46 -7 4 4 22 27 45 21 21 35
41 32 44 -3 4 -22 -10 -42 -29 -19 -20 -39 -36 -44 -36 -21 0 -19 15 3 49 14
19 25 45 25 57 0 37 -53 46 -90 16z m83 -207 c8 -44 -6 -63 -26 -35 -12 17
-13 28 -5 52 12 33 23 27 31 -17z"/>
<path d="M7482 1385 c-20 -25 -21 -25 -27 -5 -13 40 -25 19 -25 -45 0 -84 16
-85 52 -5 31 70 53 81 43 21 -8 -46 7 -81 35 -81 21 0 60 44 60 69 0 9 -8 2
-20 -16 -11 -18 -24 -33 -29 -33 -6 0 -11 26 -13 58 -3 53 -5 57 -29 60 -19 2
-33 -4 -47 -23z"/>
<path d="M7735 1385 c-52 -51 -11 -134 59 -119 44 9 97 38 121 64 17 19 11 18
-37 -9 -39 -23 -67 -31 -90 -29 -29 3 -33 6 -33 33 0 27 4 30 38 36 44 7 52
13 44 34 -10 25 -74 19 -102 -10z m65 1 c0 -2 -7 -7 -16 -10 -8 -3 -12 -2 -9
4 6 10 25 14 25 6z"/>
<path d="M12143 1403 c-18 -7 -16 -43 4 -65 15 -17 15 -19 0 -36 -23 -25 -21
-41 6 -51 31 -12 57 4 57 36 0 17 10 36 28 50 l27 23 -38 -17 c-36 -16 -38
-16 -52 3 -19 25 -19 44 1 44 8 0 12 5 9 10 -7 11 -22 12 -42 3z m37 -128 c0
-8 -4 -15 -10 -15 -5 0 -10 7 -10 15 0 8 5 15 10 15 6 0 10 -7 10 -15z"/>
<path d="M15386 1400 c-57 -7 -96 -44 -96 -90 0 -55 64 -64 97 -13 16 25 17
25 25 4 11 -30 67 -29 95 2 34 38 38 54 6 24 -45 -42 -68 -33 -68 25 0 25 -2
48 -5 50 -3 2 -27 1 -54 -2z m14 -31 c0 -25 -43 -80 -59 -77 -20 5 -17 45 6
70 18 20 53 24 53 7z"/>
<path d="M16076 1403 c-4 -4 -23 -6 -42 -4 -68 5 -129 -100 -74 -129 27 -14
55 -5 79 26 19 24 20 24 26 4 9 -29 65 -27 92 3 34 37 38 54 6 25 -50 -47 -77
-33 -66 35 5 33 -6 54 -21 40z m-26 -39 c0 -23 -39 -74 -56 -74 -19 0 -18 40
2 68 18 26 54 30 54 6z"/>
<path d="M4045 1376 c-33 -33 -35 -90 -4 -107 32 -16 95 -5 139 26 51 35 62
63 11 30 -79 -53 -141 -55 -141 -5 0 36 25 62 56 58 13 -2 24 2 26 7 2 6 -12
11 -29 13 -24 2 -39 -3 -58 -22z"/>
<path d="M4656 1379 c-23 -18 -27 -28 -24 -63 3 -38 5 -41 34 -44 19 -2 36 3
44 12 7 9 20 16 29 16 10 0 28 11 41 25 13 14 19 25 13 25 -6 0 -13 -7 -17
-15 -10 -27 -36 -17 -36 13 0 53 -38 67 -84 31z m54 -31 c0 -19 -2 -20 -10 -8
-13 19 -13 30 0 30 6 0 10 -10 10 -22z m-22 -55 c-18 -22 -28 -14 -28 23 l0
36 19 -23 c14 -17 16 -28 9 -36z"/>
<path d="M4916 1379 c-23 -18 -27 -28 -24 -63 3 -38 5 -41 34 -44 19 -2 36 3
44 12 7 9 20 16 29 16 10 0 28 11 41 25 13 14 19 25 13 25 -6 0 -13 -7 -17
-15 -10 -27 -36 -17 -36 13 0 53 -38 67 -84 31z m54 -31 c0 -19 -2 -20 -10 -8
-13 19 -13 30 0 30 6 0 10 -10 10 -22z m-22 -55 c-18 -22 -28 -14 -28 23 l0
36 19 -23 c14 -17 16 -28 9 -36z"/>
<path d="M6370 1393 c-33 -12 -70 -57 -70 -84 0 -46 42 -49 104 -6 25 18 28
18 25 3 -2 -9 -40 -43 -84 -74 -125 -89 -178 -189 -125 -237 68 -61 216 88
236 238 6 40 13 52 43 74 56 42 59 46 17 29 -21 -9 -40 -16 -42 -16 -1 0 -4
14 -6 32 -2 23 -9 32 -23 34 -11 1 -29 5 -40 8 -11 3 -27 2 -35 -1z m46 -25
c7 -11 -47 -68 -66 -68 -20 0 -9 39 16 59 31 24 40 26 50 9z m0 -150 c-20 -99
-104 -212 -154 -206 -64 7 -18 112 85 192 32 25 62 46 67 46 5 0 6 -14 2 -32z"/>
<path d="M7226 1385 c-14 -36 -6 -84 15 -99 19 -13 26 -13 49 -1 24 13 40 33
40 53 0 3 -9 -4 -20 -16 -33 -35 -49 -28 -52 25 -3 47 -20 67 -32 38z"/>
<path d="M8264 1390 c-29 -11 -49 -71 -34 -100 13 -24 61 -27 80 -5 7 8 20 15
30 15 18 0 57 36 48 45 -3 3 -11 -1 -18 -10 -18 -21 -39 -19 -33 4 7 26 -14
61 -35 60 -9 0 -27 -4 -38 -9z m46 -41 c0 -11 -4 -17 -10 -14 -5 3 -10 13 -10
21 0 8 5 14 10 14 6 0 10 -9 10 -21z m-24 -54 c-13 -35 -42 1 -30 37 6 19 6
19 21 -2 8 -11 12 -27 9 -35z"/>
<path d="M11936 1385 c-14 -36 -6 -84 15 -99 19 -13 26 -13 49 -1 24 13 40 33
40 53 0 3 -9 -4 -20 -16 -33 -35 -49 -28 -52 25 -3 47 -20 67 -32 38z"/>
<path d="M13654 1387 c-12 -31 1 -90 22 -104 19 -12 25 -11 53 12 17 15 31 32
31 38 0 6 -10 1 -23 -11 -13 -12 -29 -22 -35 -22 -14 0 -24 35 -20 69 3 27
-19 41 -28 18z"/>
<path d="M14397 1393 c-4 -3 -7 -19 -7 -34 0 -32 -32 -75 -48 -65 -7 4 -12 27
-12 52 0 45 -13 57 -38 32 -26 -26 -3 -95 36 -105 14 -3 33 -1 44 6 34 21 21
-28 -22 -84 -58 -76 -83 -138 -77 -194 8 -72 64 -104 106 -62 27 27 39 78 47
201 l6 105 46 48 c53 54 48 62 -9 16 l-39 -31 0 61 c0 44 -4 61 -13 61 -8 0
-17 -3 -20 -7z m-14 -270 c-5 -71 -20 -153 -32 -172 -5 -7 -14 -10 -20 -6 -23
14 -31 55 -20 103 10 48 54 132 68 132 4 0 6 -26 4 -57z"/>
<path d="M14644 1390 c-29 -11 -49 -71 -34 -100 13 -24 61 -27 80 -5 7 8 20
15 30 15 18 0 57 36 48 45 -3 3 -11 -1 -18 -10 -18 -21 -39 -19 -33 4 7 26
-14 61 -35 60 -9 0 -27 -4 -38 -9z m46 -41 c0 -11 -4 -17 -10 -14 -5 3 -10 13
-10 21 0 8 5 14 10 14 6 0 10 -9 10 -21z m-24 -54 c-13 -35 -42 1 -30 37 6 19
6 19 21 -2 8 -11 12 -27 9 -35z"/>
<path d="M15734 1360 c-7 -41 -35 -77 -53 -65 -6 3 -11 26 -11 51 0 50 -24 62
-40 19 -22 -59 47 -124 88 -83 9 9 12 5 12 -19 0 -17 -7 -37 -17 -44 -31 -26
-83 -118 -94 -166 -21 -91 34 -160 96 -119 32 21 45 70 52 201 l6 109 51 55
c49 53 45 54 -23 3 l-31 -23 0 60 c0 47 -3 61 -15 61 -9 0 -17 -14 -21 -40z
m-8 -242 c-9 -92 -25 -166 -39 -175 -17 -10 -37 28 -37 71 0 50 56 176 77 176
3 0 2 -33 -1 -72z"/>
</g>
</svg>
