<?xml version="1.0"?>
<svg version="1.1" xmlns="http://www.w3.org/2000/svg" width="800" height="500" style=""><path fill="#" d="M17.1533203125,274.9853515625q0-1.2646484375,0.05126953125-3.70849609375t0.35888671875-4.97314453125t1.00830078125-4.580078125t2.10205078125-2.6318359375q0.341796875-0.13671875,1.11083984375-0.2392578125t1.5380859375-0.068359375t1.3671875,0.2734375t0.59814453125,0.888671875q0,0.13671875-0.13671875,0.3759765625t-0.7177734375,0.751953125q-1.0595703125,2.939453125-1.298828125,5.8447265625t-0.2392578125,5.9814453125q0,1.8115234375,0.11962890625,3.623046875t0.39306640625,3.6572265625q0.546875-0.7861328125,1.11083984375-2.3583984375t1.1962890625-3.43505859375t1.298828125-3.77685546875t1.50390625-3.486328125t1.845703125-2.59765625t2.27294921875-1.025390625q1.4013671875,0,2.34130859375,1.76025390625t1.7431640625,4.0673828125t1.50390625,4.6826171875t1.69189453125,3.64013671875q0.478515625-0.478515625,0.76904296875-1.24755859375t0.46142578125-1.65771484375t0.205078125-1.76025390625t0.0341796875-1.48681640625q0-1.5380859375-0.46142578125-3.33251953125t-0.97412109375-3.36669921875t-0.97412109375-2.64892578125t-0.46142578125-1.24755859375q0-0.2734375,0.29052734375-0.4443359375t0.66650390625-0.2734375t0.76904296875-0.13671875t0.59814453125-0.0341796875q1.2646484375,0,2.17041015625,1.4013671875t1.435546875,3.2470703125t0.76904296875,3.74267578125t0.2392578125,2.95654296875q0,1.3330078125-0.205078125,2.8369140625t-0.76904296875,2.78564453125t-1.65771484375,2.13623046875t-2.7685546875,0.8544921875q-2.0166015625,0-3.3154296875-1.1279296875t-2.10205078125-2.734375t-1.2646484375-3.50341796875t-0.87158203125-3.43505859375q-0.7861328125,1.8115234375-1.435546875,4.580078125t-1.640625,5.4345703125t-2.529296875,4.5458984375t-3.9990234375,1.8798828125t-3.50341796875-1.21337890625t-1.65771484375-3.33251953125l0.068359375,0.068359375q-0.41015625-1.5380859375-0.52978515625-3.076171875t-0.11962890625-3.076171875z M52.449658203125,273.65234375q0-2.392578125,0.52978515625-5.6396484375t1.79443359375-6.15234375t3.33251953125-4.93896484375t5.21240234375-2.03369140625q2.939453125,0,4.4091796875,1.69189453125t1.4697265625,4.56298828125q0,1.8798828125-0.70068359375,4.11865234375t-1.99951171875,4.23828125t-3.076171875,3.33251953125t-3.96484375,1.3330078125l-0.888671875-0.068359375q0,0.9228515625,0.2734375,2.47802734375t0.80322265625,3.09326171875t1.3671875,2.7001953125t2.03369140625,1.162109375q1.7431640625,0,3.349609375-1.4013671875t3.0419921875-3.1103515625t2.666015625-3.1103515625t2.255859375-1.4013671875q0.546875,0,1.1279296875,0.1708984375t0.6494140625,0.95703125q0,0.478515625-0.25634765625,0.7861328125t-0.46142578125,0.68359375q-1.0595703125,1.8115234375-2.30712890625,3.4521484375t-2.81982421875,2.9736328125t-3.43505859375,2.10205078125t-4.11865234375,0.76904296875q-2.939453125,0-4.8876953125-1.04248046875t-3.14453125-2.802734375t-1.72607421875-4.0673828125t-0.52978515625-4.83642578125z M58.567822265625,271.0546875l0.95703125,0.8544921875q0.68359375,0.615234375,1.3671875,0.2734375t1.23046875-1.24755859375t1.00830078125-2.23876953125t0.8203125-2.734375t0.52978515625-2.734375t0.1708984375-2.2216796875l0-1.162109375t-0.1025390625-1.23046875t-0.35888671875-0.97412109375t-0.80322265625-0.49560546875q-0.1708984375-0.0341796875-0.3076171875-0.0341796875q-1.162109375,0-1.982421875,1.4697265625q-0.888671875,1.640625-1.435546875,3.98193359375t-0.7861328125,4.80224609375t-0.3076171875,3.69140625z M94.331396484375,263.4326171875q0-1.4013671875,0.8203125-2.40966796875t1.99951171875-1.640625t2.58056640625-0.93994140625t2.59765625-0.3076171875q0.9228515625,0,2.4609375,0.2734375t3.0078125,0.8203125t2.54638671875,1.435546875t1.07666015625,2.0849609375q0,0.546875-0.41015625,0.97412109375t-0.8544921875,0.42724609375q-0.9228515625,0-1.6748046875-0.59814453125t-1.55517578125-1.2646484375t-1.76025390625-1.2646484375t-2.1533203125-0.59814453125t-2.17041015625,0.76904296875t-0.97412109375,2.03369140625q0,2.0849609375,1.4697265625,4.08447265625t3.22998046875,4.2041015625t3.22998046875,4.63134765625t1.4697265625,5.3662109375q0,1.2646484375-0.52978515625,2.13623046875t-1.4013671875,1.41845703125t-1.96533203125,0.83740234375t-2.119140625,0.29052734375q-1.1279296875,0-2.6318359375-0.52978515625t-2.8369140625-1.4013671875t-2.23876953125-2.03369140625t-0.90576171875-2.4267578125q0-0.615234375,0.87158203125-0.7861328125t1.28173828125-0.1708984375q0.205078125,0,0.63232421875,0.13671875t0.83740234375,0.3076171875t0.73486328125,0.3759765625t0.25634765625,0.4443359375q0.341796875,0.41015625,1.04248046875,1.21337890625t1.4013671875,1.298828125t1.23046875,0.35888671875t0.52978515625-1.5380859375q0-2.666015625-1.435546875-4.90478515625t-3.12744140625-4.375t-3.12744140625-4.23828125t-1.435546875-4.49462890625z M118.416796875,273.65234375q0-2.392578125,0.52978515625-5.6396484375t1.79443359375-6.15234375t3.33251953125-4.93896484375t5.21240234375-2.03369140625q2.939453125,0,4.4091796875,1.69189453125t1.4697265625,4.56298828125q0,1.8798828125-0.70068359375,4.11865234375t-1.99951171875,4.23828125t-3.076171875,3.33251953125t-3.96484375,1.3330078125l-0.888671875-0.068359375q0,0.9228515625,0.2734375,2.47802734375t0.80322265625,3.09326171875t1.3671875,2.7001953125t2.03369140625,1.162109375q1.7431640625,0,3.349609375-1.4013671875t3.0419921875-3.1103515625t2.666015625-3.1103515625t2.255859375-1.4013671875q0.546875,0,1.1279296875,0.1708984375t0.6494140625,0.95703125q0,0.478515625-0.25634765625,0.7861328125t-0.46142578125,0.68359375q-1.0595703125,1.8115234375-2.30712890625,3.4521484375t-2.81982421875,2.9736328125t-3.43505859375,2.10205078125t-4.11865234375,0.76904296875q-2.939453125,0-4.8876953125-1.04248046875t-3.14453125-2.802734375t-1.72607421875-4.0673828125t-0.52978515625-4.83642578125z M124.5349609375,271.0546875l0.95703125,0.8544921875q0.68359375,0.615234375,1.3671875,0.2734375t1.23046875-1.24755859375t1.00830078125-2.23876953125t0.8203125-2.734375t0.52978515625-2.734375t0.1708984375-2.2216796875l0-1.162109375t-0.1025390625-1.23046875t-0.35888671875-0.97412109375t-0.80322265625-0.49560546875q-0.1708984375-0.0341796875-0.3076171875-0.0341796875q-1.162109375,0-1.982421875,1.4697265625q-0.888671875,1.640625-1.435546875,3.98193359375t-0.7861328125,4.80224609375t-0.3076171875,3.69140625z M146.97973632812,273.65234375q0-2.392578125,0.52978515625-5.6396484375t1.79443359375-6.15234375t3.33251953125-4.93896484375t5.21240234375-2.03369140625q2.939453125,0,4.4091796875,1.69189453125t1.4697265625,4.56298828125q0,1.8798828125-0.70068359375,4.11865234375t-1.99951171875,4.23828125t-3.076171875,3.33251953125t-3.96484375,1.3330078125l-0.888671875-0.068359375q0,0.9228515625,0.2734375,2.47802734375t0.80322265625,3.09326171875t1.3671875,2.7001953125t2.03369140625,1.162109375q1.7431640625,0,3.349609375-1.4013671875t3.0419921875-3.1103515625t2.666015625-3.1103515625t2.255859375-1.4013671875q0.546875,0,1.1279296875,0.1708984375t0.6494140625,0.95703125q0,0.478515625-0.25634765625,0.7861328125t-0.46142578125,0.68359375q-1.0595703125,1.8115234375-2.30712890625,3.4521484375t-2.81982421875,2.9736328125t-3.43505859375,2.10205078125t-4.11865234375,0.76904296875q-2.939453125,0-4.8876953125-1.04248046875t-3.14453125-2.802734375t-1.72607421875-4.0673828125t-0.52978515625-4.83642578125z M153.09790039062,271.0546875l0.95703125,0.8544921875q0.68359375,0.615234375,1.3671875,0.2734375t1.23046875-1.24755859375t1.00830078125-2.23876953125t0.8203125-2.734375t0.52978515625-2.734375t0.1708984375-2.2216796875l0-1.162109375t-0.1025390625-1.23046875t-0.35888671875-0.97412109375t-0.80322265625-0.49560546875q-0.1708984375-0.0341796875-0.3076171875-0.0341796875q-1.162109375,0-1.982421875,1.4697265625q-0.888671875,1.640625-1.435546875,3.98193359375t-0.7861328125,4.80224609375t-0.3076171875,3.69140625z M188.92983398438,274.9853515625q0-1.2646484375,0.05126953125-3.70849609375t0.35888671875-4.97314453125t1.00830078125-4.580078125t2.10205078125-2.6318359375q0.341796875-0.13671875,1.11083984375-0.2392578125t1.5380859375-0.068359375t1.3671875,0.2734375t0.59814453125,0.888671875q0,0.13671875-0.13671875,0.3759765625t-0.7177734375,0.751953125q-1.0595703125,2.939453125-1.298828125,5.8447265625t-0.2392578125,5.9814453125q0,1.8115234375,0.11962890625,3.623046875t0.39306640625,3.6572265625q0.546875-0.7861328125,1.11083984375-2.3583984375t1.1962890625-3.43505859375t1.298828125-3.77685546875t1.50390625-3.486328125t1.845703125-2.59765625t2.27294921875-1.025390625q1.4013671875,0,2.34130859375,1.76025390625t1.7431640625,4.0673828125t1.50390625,4.6826171875t1.69189453125,3.64013671875q0.478515625-0.478515625,0.76904296875-1.24755859375t0.46142578125-1.65771484375t0.205078125-1.76025390625t0.0341796875-1.48681640625q0-1.5380859375-0.46142578125-3.33251953125t-0.97412109375-3.36669921875t-0.97412109375-2.64892578125t-0.46142578125-1.24755859375q0-0.2734375,0.29052734375-0.4443359375t0.66650390625-0.2734375t0.76904296875-0.13671875t0.59814453125-0.0341796875q1.2646484375,0,2.17041015625,1.4013671875t1.435546875,3.2470703125t0.76904296875,3.74267578125t0.2392578125,2.95654296875q0,1.3330078125-0.205078125,2.8369140625t-0.76904296875,2.78564453125t-1.65771484375,2.13623046875t-2.7685546875,0.8544921875q-2.0166015625,0-3.3154296875-1.1279296875t-2.10205078125-2.734375t-1.2646484375-3.50341796875t-0.87158203125-3.43505859375q-0.7861328125,1.8115234375-1.435546875,4.580078125t-1.640625,5.4345703125t-2.529296875,4.5458984375t-3.9990234375,1.8798828125t-3.50341796875-1.21337890625t-1.65771484375-3.33251953125l0.068359375,0.068359375q-0.41015625-1.5380859375-0.52978515625-3.076171875t-0.11962890625-3.076171875z M224.226171875,273.65234375q0-2.392578125,0.52978515625-5.6396484375t1.79443359375-6.15234375t3.33251953125-4.93896484375t5.21240234375-2.03369140625q2.939453125,0,4.4091796875,1.69189453125t1.4697265625,4.56298828125q0,1.8798828125-0.70068359375,4.11865234375t-1.99951171875,4.23828125t-3.076171875,3.33251953125t-3.96484375,1.3330078125l-0.888671875-0.068359375q0,0.9228515625,0.2734375,2.47802734375t0.80322265625,3.09326171875t1.3671875,2.7001953125t2.03369140625,1.162109375q1.7431640625,0,3.349609375-1.4013671875t3.0419921875-3.1103515625t2.666015625-3.1103515625t2.255859375-1.4013671875q0.546875,0,1.1279296875,0.1708984375t0.6494140625,0.95703125q0,0.478515625-0.25634765625,0.7861328125t-0.46142578125,0.68359375q-1.0595703125,1.8115234375-2.30712890625,3.4521484375t-2.81982421875,2.9736328125t-3.43505859375,2.10205078125t-4.11865234375,0.76904296875q-2.939453125,0-4.8876953125-1.04248046875t-3.14453125-2.802734375t-1.72607421875-4.0673828125t-0.52978515625-4.83642578125z M230.3443359375,271.0546875l0.95703125,0.8544921875q0.68359375,0.615234375,1.3671875,0.2734375t1.23046875-1.24755859375t1.00830078125-2.23876953125t0.8203125-2.734375t0.52978515625-2.734375t0.1708984375-2.2216796875l0-1.162109375t-0.1025390625-1.23046875t-0.35888671875-0.97412109375t-0.80322265625-0.49560546875q-0.1708984375-0.0341796875-0.3076171875-0.0341796875q-1.162109375,0-1.982421875,1.4697265625q-0.888671875,1.640625-1.435546875,3.98193359375t-0.7861328125,4.80224609375t-0.3076171875,3.69140625z"/><path fill="#" d=""/></svg>
